<svg width="135" height="30" fill="none" xmlns="http://www.w3.org/2000/svg"><g clip-path="url(#clip0_1_175)" fill="#095BFC"><path d="M15.646 22.933c-5.099.663-9.405-3.751-8.757-8.978.44-3.563 3.247-6.438 6.722-6.89 5.096-.665 9.402 3.75 8.754 8.978-.44 3.56-3.247 6.438-6.72 6.89zM16.12.073C6.868-.865-.843 7.042.073 16.53c.677 7.02 6.214 12.698 13.063 13.394 9.252.94 16.962-6.968 16.048-16.454C28.504 6.45 22.967.77 16.12.074zM37.032.67c-2.115 0-3.783 1.973-3.342 4.224.322 1.65 1.83 2.776 3.47 2.776h9.526L31.86 27.727c-.487.659-.028 1.603.776 1.603h23.257c1.64 0 3.149-1.127 3.47-2.776.439-2.25-1.226-4.224-3.341-4.224H44.415L59.23 2.288c.491-.665.03-1.619-.783-1.619H37.032zm92.931.08c-1.584.342-2.671 1.853-2.671 3.512v11.655L108.819.89c-.643-.525-1.594-.054-1.594.79v24.063c0 1.659 1.087 3.17 2.671 3.512 2.209.478 4.155-1.237 4.155-3.418V14.08l18.473 15.027c.643.525 1.594.054 1.594-.79V4.168c0-2.18-1.945-3.895-4.155-3.417zM81.865 0c-11.31 0-20.479 6.715-20.479 14.996 0 8.282 9.168 14.997 20.479 14.997 11.31 0 20.478-6.715 20.478-14.996C102.343 6.714 93.175 0 81.865 0zm0 7c7.812 0 13.65 4.222 13.65 7.996 0 3.775-5.838 7.997-13.65 7.997-7.813 0-13.653-4.222-13.653-7.996 0-3.775 5.84-7.997 13.653-7.997z"/></g><defs><clipPath id="clip0_1_175"><path fill="#fff" d="M0 0h134.118v30H0z"/></clipPath></defs></svg>