<svg width="50" height="50" fill="none" xmlns="http://www.w3.org/2000/svg"><rect width="50" height="50" rx="25" fill="#5B7FA0"/><path fill-rule="evenodd" clip-rule="evenodd" d="M35.399 27.639c.965.88 1.883 1.81 2.75 2.787a7.8 7.8 0 01.984 1.413 1.029 1.029 0 01-.625 1.6H34.42a3.15 3.15 0 01-2.603-1.063c-.564-.587-1.09-1.2-1.634-1.8a4.328 4.328 0 00-.735-.663.86.86 0 00-1.361.338 4.305 4.305 0 00-.43 1.912 1.093 1.093 0 01-1.303 1.275c-2.03.15-4.06-.287-5.847-1.262a12.936 12.936 0 01-3.935-3.7 49.861 49.861 0 01-5.182-9.288c-.326-.725-.087-1.124.714-1.137a142.23 142.23 0 014 0 1.185 1.185 0 011.11.838 24.905 24.905 0 002.713 5.05 4.26 4.26 0 001.025 1.125.617.617 0 001.057-.3c.133-.34.212-.7.235-1.063a15.967 15.967 0 00-.064-3.712 1.531 1.531 0 00-1.312-1.413c-.39-.075-.333-.225-.144-.45a1.466 1.466 0 011.25-.625h4.619a1.107 1.107 0 01.989 1.213v5.15a1.499 1.499 0 00.652 1.312.893.893 0 00.921-.45 16.029 16.029 0 002.603-4.012c.311-.638.581-1.3.842-1.963a.983.983 0 011.044-.713h4.446c.132-.004.264.005.394.026a.774.774 0 01.723 1.187 11.126 11.126 0 01-1.77 3.075c-.74 1.038-1.532 2.037-2.27 3.062a1.407 1.407 0 00.23 2.25z" fill="#fff"/></svg>