<svg width="35" height="35" fill="none" xmlns="http://www.w3.org/2000/svg"><path d="M33.548 34.483l-9.108-9.088a.89.89 0 01-.02-1.233c.378-.398.716-.796 1.035-1.233.318-.438.616-.895.875-1.352.258-.458.497-.955.696-1.452a13.87 13.87 0 00.517-1.531 14.82 14.82 0 00.318-1.571c.08-.537.12-1.074.12-1.611 0-.537-.02-1.074-.08-1.61-.06-.538-.14-1.075-.279-1.592a15.258 15.258 0 00-.457-1.55 9.76 9.76 0 00-.656-1.473 11.205 11.205 0 00-.836-1.392 12.182 12.182 0 00-.994-1.272 15.252 15.252 0 00-1.133-1.134 12.181 12.181 0 00-1.273-.994 16.101 16.101 0 00-1.392-.835 19.492 19.492 0 00-1.472-.657 12.746 12.746 0 00-1.551-.457 13.993 13.993 0 00-1.591-.278 14.56 14.56 0 00-1.61-.08c-.538 0-1.075.06-1.611.12-.537.079-1.054.178-1.572.318a13.69 13.69 0 00-1.53.517c-.498.198-.975.437-1.453.696-.477.258-.914.556-1.352.875-.437.318-.855.656-1.233 1.034-.397.378-.755.755-1.093 1.173a15.81 15.81 0 00-.955 1.313 9.75 9.75 0 00-.776 1.411 10.6 10.6 0 00-.596 1.492c-.18.517-.299 1.034-.418 1.551a14.56 14.56 0 00-.219 1.59c-.04.538-.04 1.075-.02 1.612.02.537.08 1.074.18 1.61a13.904 13.904 0 00.934 3.083c.219.497.477.974.756 1.432.278.457.577.895.915 1.332.338.418.696.816 1.074 1.213.377.378.795.736 1.213 1.054.417.338.875.637 1.332.915.457.278.935.517 1.432.736.497.219.994.398 1.511.557a10.51 10.51 0 001.571.357c.537.08 1.074.14 1.611.16.537.02 1.074.02 1.61-.04a10.58 10.58 0 001.592-.239c.537-.12 1.054-.258 1.55-.417a12.372 12.372 0 001.492-.617.88.88 0 01.676-.04c.22.08.398.22.498.438a.888.888 0 01.04.676.831.831 0 01-.438.497c-.537.259-1.114.497-1.69.696a13.4 13.4 0 01-1.75.477 13.85 13.85 0 01-1.79.259c-.597.06-1.213.06-1.81.04-.616-.02-1.213-.08-1.81-.18a13.356 13.356 0 01-1.77-.397 13.51 13.51 0 01-1.71-.616 17.799 17.799 0 01-1.63-.816 12.54 12.54 0 01-1.512-1.014 12.94 12.94 0 01-1.372-1.173 15.524 15.524 0 01-1.233-1.333 15.522 15.522 0 01-1.054-1.491 17.76 17.76 0 01-.875-1.591 12.392 12.392 0 01-.656-1.69 17.766 17.766 0 01-.457-1.77 13.649 13.649 0 01-.24-1.81A18.523 18.523 0 010 14.278c.06-.556.12-1.153.239-1.75.1-.596.238-1.193.417-1.77.18-.576.398-1.153.637-1.71.238-.557.537-1.093.835-1.61.318-.518.656-1.015 1.034-1.492a13.11 13.11 0 011.213-1.352c.438-.418.875-.836 1.372-1.193.497-.358.975-.716 1.492-1.035a12.358 12.358 0 011.61-.835 15.918 15.918 0 011.71-.636 10.958 10.958 0 011.77-.438 13.56 13.56 0 011.81-.199c.617-.04 1.213-.02 1.81.02s1.213.12 1.81.239c.596.12 1.173.278 1.77.457a13.62 13.62 0 011.69.677 15.01 15.01 0 011.59.875c.518.318 1.015.676 1.472 1.054.478.377.915.795 1.333 1.232.417.438.815.895 1.173 1.393a15.223 15.223 0 011.81 3.142c.238.556.437 1.133.596 1.71.16.576.298 1.173.398 1.77a13.947 13.947 0 01.12 3.619c-.06.597-.14 1.213-.28 1.79a18.89 18.89 0 01-.496 1.75 15.515 15.515 0 01-.696 1.67 15.244 15.244 0 01-.895 1.571 13.19 13.19 0 01-1.094 1.452l8.511 8.511-1.213 1.293z" fill="#00136F"/></svg>