<svg width="15" height="15" fill="none" xmlns="http://www.w3.org/2000/svg"><path d="M12.21 14.999h-1.654c-.258 0-.465-.103-.671-.258a.982.982 0 01-.259-.672V9.988c0-.155-.051-.207-.206-.207H6.578c-.155 0-.206.052-.206.207v4.081c0 .258-.104.465-.259.672a.982.982 0 01-.671.258H3.685c-.258 0-.465-.103-.671-.258a.982.982 0 01-.258-.672V8.903c0-.258.103-.362.361-.362s.362.104.362.362v5.166c0 .155.051.207.206.207h1.757c.155 0 .207-.052.207-.207V9.988c0-.258.103-.465.258-.672a.982.982 0 01.671-.258H9.42c.258 0 .465.103.671.258.207.155.259.414.259.672v4.081c0 .155.051.207.206.207h1.653c.155 0 .207-.052.207-.207V7.82c0-.26.103-.362.362-.362h.878l-5.683-5.58-6.354 6.2c-.155.154-.31.154-.517 0-.155-.155-.155-.31 0-.517l6.613-6.458c.155-.155.31-.155.465 0l6.612 6.458c.104.103.155.258.104.362-.052.154-.155.206-.31.206H13.19v5.89c0 .258-.103.464-.258.671-.259.207-.465.258-.724.31z" fill="#00136F"/></svg>