<svg width="50" height="50" fill="none" xmlns="http://www.w3.org/2000/svg"><path d="M25 50c13.807 0 25-11.193 25-25S38.807 0 25 0 0 11.193 0 25s11.193 25 25 25z" fill="#0032A0"/><path d="M13.603 20.642H11.45v4.552c-1.87-1.676-3.758-3.37-5.68-5.046v9.227h2.152v-4.551c1.782 1.587 3.705 3.37 5.68 5.045v-9.227zm4.746 8.733h-2.135v-8.733h2.135v8.733zm5.575.494c-1.517-2.858-3.035-6.14-4.552-9.227h2.417l2.152 4.729 2.065-4.729h2.364c-1.5 3.088-2.982 6.37-4.446 9.227zm11.203-7.321h-3.634v1.5h3.634v1.905h-3.634v1.5h3.634v1.905h-5.77v-8.716h5.77v1.906zm5.434-2.4c-1.482 2.911-2.946 6.052-4.428 9.227h2.24l.441-1.04h3.494l.44 1.04h2.33c-1.518-3.193-3.053-6.369-4.517-9.227zm-1.111 6.546l1.111-2.54 1.076 2.54H39.45z" fill="#fff"/></svg>