<svg width="36" height="35" fill="none" xmlns="http://www.w3.org/2000/svg"><path d="M6.622 15.352c0-.716.378-1.253.736-1.253h.14v2.506h-.14c-.358 0-.736-.537-.736-1.253zm23.665 0c0 .716-.378 1.253-.736 1.253h-.14V14.1h.14c.358 0 .736.537.736 1.253zm-4.733 10.282a10.674 10.674 0 002.625-3.262 10.839 10.839 0 001.213-4.017h.199c.358-.04.696-.14 1.034-.318.318-.18.597-.398.835-.676.239-.279.398-.597.517-.955.1-.358.14-.696.1-1.074v-.02c.04-.357 0-.715-.12-1.073-.099-.358-.278-.657-.517-.955a3.045 3.045 0 00-.835-.676 2.387 2.387 0 00-1.034-.298h-.855c-.02 0-.06 0-.08.02-.02 0-.04-.02-.06-.02a.798.798 0 00-.616.258.827.827 0 00-.258.617v4.056c0 .597-.06 1.213-.18 1.81a10.24 10.24 0 01-.516 1.73 9.418 9.418 0 01-.855 1.591 8.58 8.58 0 01-1.154 1.392 9.525 9.525 0 01-1.392 1.154 9.41 9.41 0 01-1.59.855 8.67 8.67 0 01-1.73.517 9.157 9.157 0 01-1.81.179 9.25 9.25 0 01-1.81-.18 8.723 8.723 0 01-1.73-.536 9.4 9.4 0 01-1.591-.855 8.58 8.58 0 01-1.392-1.154 9.525 9.525 0 01-1.154-1.392 9.404 9.404 0 01-.855-1.59 8.669 8.669 0 01-.517-1.73 9.156 9.156 0 01-.179-1.81v-6.265a8.99 8.99 0 01.577-3.241c.199-.517.437-1.014.716-1.492.278-.477.596-.914.974-1.332a8.052 8.052 0 011.193-1.134c.438-.338.895-.656 1.373-.914.477-.259.994-.478 1.51-.657a9.096 9.096 0 014.892-.239 9 9 0 013.024 1.274c.457.298.895.636 1.292 1.014.398.378.756.795 1.094 1.233.318.437.617.914.855 1.412.239.497.438 1.014.597 1.53.06.24.199.399.417.518.22.12.438.14.657.08.238-.06.397-.2.517-.418a.853.853 0 00.08-.656 11.952 11.952 0 00-.697-1.83 11.673 11.673 0 00-1.014-1.67 11.416 11.416 0 00-1.293-1.472 11.088 11.088 0 00-1.53-1.213A12.007 12.007 0 0022.75.835 10.23 10.23 0 0020.88.24a12.751 12.751 0 00-1.948-.259c-.656-.02-1.313 0-1.969.1-.656.099-1.293.238-1.909.437a10.28 10.28 0 00-1.81.776 11.353 11.353 0 00-3.043 2.446A11.173 11.173 0 008.192 7.1a10.65 10.65 0 00-.516 1.89c-.12.636-.179 1.292-.179 1.948v1.393h-.139c-.358.04-.696.139-1.034.318a3.047 3.047 0 00-.835.676 2.777 2.777 0 00-.517.954c-.1.358-.14.696-.1 1.074v.02c-.04.358 0 .716.12 1.074.099.358.278.656.517.935.238.278.517.497.835.676a2.31 2.31 0 001.034.298h.199a10.952 10.952 0 001.213 4.017 11.038 11.038 0 002.645 3.262C4.932 26.886.995 29.949.995 34.105c0 .239.079.458.258.617a.827.827 0 00.616.258.8.8 0 00.617-.258.827.827 0 00.258-.617c0-3.997 4.952-6.244 10.898-7.04 1.531.756 3.142 1.154 4.852 1.154h.02c1.73 0 3.361-.398 4.892-1.174 5.907.776 10.838 3.023 10.838 7.04 0 .239.08.458.259.617.179.159.378.258.616.258a.8.8 0 00.617-.258.827.827 0 00.258-.617c-.04-4.156-3.957-7.219-10.44-8.451z" fill="#00136F"/></svg>