<svg width="10" height="12" fill="none" xmlns="http://www.w3.org/2000/svg"><path d="M4.635 12a.694.694 0 01-.54-.216.694.694 0 01-.217-.54V5.621H.743a.654.654 0 01-.649-.433c-.162-.324-.108-.594.108-.81L4.365.215A.694.694 0 014.905 0c.216 0 .378.054.54.216l4.163 4.162a.694.694 0 01.216.54.694.694 0 01-.216.541.694.694 0 01-.54.217.694.694 0 01-.541-.217L4.905 1.784 2.473 4.162H4.58c.216 0 .378.054.54.216a.694.694 0 01.217.54v6.38a.694.694 0 01-.217.54c-.108.108-.324.162-.486.162z" fill="#00136F"/></svg>