<svg width="46" height="46" fill="none" xmlns="http://www.w3.org/2000/svg"><path fill-rule="evenodd" clip-rule="evenodd" d="M27.396 33h-7.792a5.631 5.631 0 01-3.964-1.653A5.61 5.61 0 0114 27.382v-8.765a5.604 5.604 0 011.638-3.966A5.625 5.625 0 0119.604 13h7.792a5.625 5.625 0 013.966 1.651A5.604 5.604 0 0133 18.617v8.765a5.61 5.61 0 01-1.64 3.965A5.631 5.631 0 0127.396 33zm-7.467-18.207a4.186 4.186 0 00-2.95 1.23 4.171 4.171 0 00-1.218 2.951v8.079a4.171 4.171 0 001.218 2.951 4.186 4.186 0 002.95 1.23h7.167a4.186 4.186 0 002.95-1.23 4.17 4.17 0 001.217-2.951v-8.079a4.171 4.171 0 00-1.217-2.95 4.186 4.186 0 00-2.95-1.23h-7.167zm3.615 13.12a4.94 4.94 0 01-3.48-1.451 4.921 4.921 0 01-1.436-3.48 5.022 5.022 0 011.507-3.578 4.699 4.699 0 013.433-1.345 5.088 5.088 0 013.673 1.491A4.778 4.778 0 0128.459 23a5.067 5.067 0 01-1.456 3.467 4.825 4.825 0 01-3.46 1.446h.001zm-.112-8.143a3.021 3.021 0 00-2.108.87 3.293 3.293 0 00-.988 2.341 3.195 3.195 0 00.885 2.366 3.208 3.208 0 003.593.727 3.21 3.21 0 001.738-1.836c.15-.407.215-.841.192-1.275.042-1.94-1.164-3.129-3.228-3.193h-.087.003zm6.28-2.159a1.21 1.21 0 01-.753 1.118 1.218 1.218 0 01-1.655-.886 1.21 1.21 0 011.193-1.449 1.216 1.216 0 011.215 1.217z" fill="#fff"/><rect x=".5" y=".5" width="45" height="45" rx="22.5" stroke="#fff"/></svg>