<svg width="46" height="46" fill="none" xmlns="http://www.w3.org/2000/svg"><path fill-rule="evenodd" clip-rule="evenodd" d="M30.34 24.985a25.346 25.346 0 011.861 1.92c.257.298.48.625.666.973a.715.715 0 01-.423 1.102h-2.765c-.33.025-.66-.028-.966-.155a2.133 2.133 0 01-.796-.577c-.381-.404-.737-.827-1.105-1.24a2.946 2.946 0 00-.498-.456.577.577 0 00-.52-.127.58.58 0 00-.4.36 3.01 3.01 0 00-.292 1.317.766.766 0 01-.209.68.735.735 0 01-.672.198 7.053 7.053 0 01-3.957-.87 8.821 8.821 0 01-2.662-2.548c-1.39-2-2.565-4.145-3.506-6.399-.221-.5-.06-.775.483-.783a94.652 94.652 0 012.706 0c.17.003.333.06.468.164a.816.816 0 01.283.413 17.256 17.256 0 001.836 3.479c.183.298.418.56.693.775a.417.417 0 00.42.12.416.416 0 00.296-.327c.09-.234.143-.481.159-.732.083-.852.069-1.71-.043-2.558a1.065 1.065 0 00-.275-.646 1.03 1.03 0 00-.613-.327c-.264-.051-.225-.155-.098-.31a.998.998 0 01.846-.43h3.125a.737.737 0 01.505.276.766.766 0 01.164.559v3.548a1.048 1.048 0 00.442.904c.123.02.248 0 .36-.055a.61.61 0 00.263-.255 11.065 11.065 0 001.761-2.764c.21-.44.394-.896.57-1.352a.676.676 0 01.266-.376.658.658 0 01.44-.115h3.01c.088-.003.178.003.266.017a.515.515 0 01.495.254.54.54 0 01-.007.564 7.7 7.7 0 01-1.196 2.119c-.502.715-1.037 1.403-1.536 2.11a.97.97 0 00-.306.815.981.981 0 00.461.735z" fill="#fff"/><rect x=".5" y=".5" width="45" height="45" rx="22.5" stroke="#fff"/></svg>