<svg width="46" height="46" fill="none" xmlns="http://www.w3.org/2000/svg"><path fill-rule="evenodd" clip-rule="evenodd" d="M32.83 19.28c-.11-1.307-.906-2.961-2.533-3.023a103.83 103.83 0 00-14.596 0c-1.438.151-2.422 1.876-2.532 3.201a37.219 37.219 0 000 7.08c.11 1.306 1.068 3.04 2.532 3.218 4.86.325 9.736.325 14.596 0 1.417-.24 2.424-1.912 2.534-3.219a38.939 38.939 0 000-7.257zM20.5 26.484v-7.061l6.252 3.53-6.252 3.53z" fill="#fff"/><rect x=".5" y=".5" width="45" height="45" rx="22.5" stroke="#fff"/></svg>